<svg width="800px" height="800px" viewBox="0 0 24 24" fill="none" xmlns="http://www.w3.org/2000/svg">
<path fill-rule="evenodd" clip-rule="evenodd" d="M8.25 6.75C8.25 5.92157 8.92157 5.25 9.75 5.25L13.75 5.25C14.3598 5.25 15 5.83609 15 6.75L8.25 6.75ZM6.75 6.75C6.75 5.09315 8.09315 3.75 9.75 3.75H13.75C15.3494 3.75 16.5 5.17863 16.5 6.75H20.25L21 7.5V12.75V14.25V19.5L20.25 20.25H3.75L3 19.5V14.25V12.75V7.5L3.75 6.75L6.75 6.75ZM19.5 12.75V8.25H4.5V12.75H7.5V12L8.25 11.25H9.75V9.75L10.5 9H13.5L14.25 9.75V11.25H15.75L16.5 12V12.75H19.5ZM16.5 14.25H19.5V18.75H4.5V14.25H7.5V15L8.25 15.75H9.75V17.25L10.5 18H13.5L14.25 17.25V15.75H15.75L16.5 15V14.25ZM15 14.25V12.75H12.75V10.5H11.25V12.75H9V14.25H11.25V16.5H12.75V14.25H15Z" fill="#ffffff"/>
</svg>