<svg viewBox="0 0 24 24" fill="none" xmlns="http://www.w3.org/2000/svg"><g id="SVGRepo_bgCarrier" stroke-width="0"></g><g id="SVGRepo_tracerCarrier" stroke-linecap="round" stroke-linejoin="round"></g><g id="SVGRepo_iconCarrier"> <path fill-rule="evenodd" clip-rule="evenodd" d="M3.75 4.5L4.5 3.75H10.5L11.25 4.5V10.5L10.5 11.25H4.5L3.75 10.5V4.5ZM5.25 5.25V9.75H9.75V5.25H5.25ZM12.75 4.5L13.5 3.75H19.5L20.25 4.5V10.5L19.5 11.25H13.5L12.75 10.5V4.5ZM14.25 5.25V9.75H18.75V5.25H14.25ZM3.75 13.5L4.5 12.75H10.5L11.25 13.5V19.5L10.5 20.25H4.5L3.75 19.5V13.5ZM5.25 14.25V18.75H9.75V14.25H5.25ZM12.75 13.5L13.5 12.75H19.5L20.25 13.5V19.5L19.5 20.25H13.5L12.75 19.5V13.5ZM14.25 14.25V18.75H18.75V14.25H14.25Z" fill="#ffffff"></path> </g></svg>