<svg width="70" height="70" viewBox="0 0 70 70" fill="none" xmlns="http://www.w3.org/2000/svg">
<circle cx="35" cy="35" r="35" fill="#5D87FF"/>
<path d="M16.132 39.68V17.36H19.084V39.536C19.084 40.184 19.18 40.676 19.372 41.012C19.588 41.324 20.008 41.48 20.632 41.48H21.208V44.18H20.38C18.796 44.18 17.692 43.76 17.068 42.92C16.444 42.08 16.132 41 16.132 39.68ZM38.5842 42.956C37.5042 43.484 36.4242 43.844 35.3442 44.036C34.2642 44.252 33.2682 44.36 32.3562 44.36C29.7882 44.36 27.8682 43.628 26.5962 42.164C25.3482 40.7 24.7242 38.696 24.7242 36.152V33.992C24.7242 31.52 25.3482 29.54 26.5962 28.052C27.8682 26.564 29.6562 25.82 31.9602 25.82C33.1842 25.82 34.3002 26.072 35.3082 26.576C36.3402 27.056 37.1562 27.8 37.7562 28.808C38.3802 29.792 38.6922 31.064 38.6922 32.624C38.6922 33.632 38.5482 34.784 38.2602 36.08H27.6402V36.152C27.6402 37.976 28.0122 39.356 28.7562 40.292C29.5242 41.228 30.7482 41.696 32.4282 41.696C33.1962 41.696 34.0362 41.6 34.9482 41.408C35.8842 41.216 36.7962 40.916 37.6842 40.508L38.5842 42.956ZM31.9602 28.412C30.5682 28.412 29.5122 28.868 28.7922 29.78C28.0962 30.668 27.7122 31.928 27.6402 33.56H35.7042C35.7762 33.128 35.8122 32.72 35.8122 32.336C35.8122 30.992 35.4282 30.008 34.6602 29.384C33.9162 28.736 33.0162 28.412 31.9602 28.412ZM53.2328 44L48.8048 37.052L44.5568 44H41.4248L47.3288 34.784L41.8568 26.18H45.1328L49.0568 32.408L52.9088 26.18H56.0048L50.5688 34.712L56.4728 44H53.2328Z" fill="white"/>
</svg>
