<svg width="175" height="28" viewBox="0 0 175 28" fill="none" xmlns="http://www.w3.org/2000/svg">
<path d="M0.132 22.68V0.36H3.084V22.536C3.084 23.184 3.18 23.676 3.372 24.012C3.588 24.324 4.008 24.48 4.632 24.48H5.208V27.18H4.38C2.796 27.18 1.692 26.76 1.068 25.92C0.444 25.08 0.132 24 0.132 22.68ZM22.5842 25.956C21.5042 26.484 20.4242 26.844 19.3442 27.036C18.2642 27.252 17.2682 27.36 16.3562 27.36C13.7882 27.36 11.8682 26.628 10.5962 25.164C9.34819 23.7 8.72419 21.696 8.72419 19.152V16.992C8.72419 14.52 9.34819 12.54 10.5962 11.052C11.8682 9.564 13.6562 8.82 15.9602 8.82C17.1842 8.82 18.3002 9.072 19.3082 9.576C20.3402 10.056 21.1562 10.8 21.7562 11.808C22.3802 12.792 22.6922 14.064 22.6922 15.624C22.6922 16.632 22.5482 17.784 22.2602 19.08H11.6402V19.152C11.6402 20.976 12.0122 22.356 12.7562 23.292C13.5242 24.228 14.7482 24.696 16.4282 24.696C17.1962 24.696 18.0362 24.6 18.9482 24.408C19.8842 24.216 20.7962 23.916 21.6842 23.508L22.5842 25.956ZM15.9602 11.412C14.5682 11.412 13.5122 11.868 12.7922 12.78C12.0962 13.668 11.7122 14.928 11.6402 16.56H19.7042C19.7762 16.128 19.8122 15.72 19.8122 15.336C19.8122 13.992 19.4282 13.008 18.6602 12.384C17.9162 11.736 17.0162 11.412 15.9602 11.412ZM37.2328 27L32.8048 20.052L28.5568 27H25.4248L31.3288 17.784L25.8568 9.18H29.1328L33.0568 15.408L36.9088 9.18H40.0048L34.5688 17.712L40.4728 27H37.2328ZM54.2569 26.352C52.9129 27.024 51.4849 27.36 49.9729 27.36C48.6769 27.36 47.6569 27.096 46.9129 26.568C46.1929 26.04 45.6769 25.332 45.3649 24.444C45.0769 23.556 44.9329 22.572 44.9329 21.492V11.772H41.8369V9.18H44.9329V4.212H47.8849V9.18H53.7169V11.772H47.8849V21.384C47.8849 22.632 48.0889 23.496 48.4969 23.976C48.9289 24.432 49.5889 24.66 50.4769 24.66C50.9089 24.66 51.3529 24.612 51.8089 24.516C52.2889 24.396 52.8049 24.204 53.3569 23.94L54.2569 26.352ZM71.1727 27.18C70.0687 27.18 69.1807 26.928 68.5087 26.424C67.8607 25.92 67.4047 25.296 67.1407 24.552C65.9647 25.584 64.8967 26.316 63.9367 26.748C62.9767 27.156 62.0167 27.36 61.0567 27.36C59.4967 27.36 58.3447 26.856 57.6007 25.848C56.8567 24.84 56.4847 23.604 56.4847 22.14C56.4847 21.156 56.6647 20.28 57.0247 19.512C57.3847 18.744 57.9967 18.144 58.8607 17.712C59.7247 17.256 60.8887 17.028 62.3527 17.028C63.0007 17.028 63.7087 17.076 64.4767 17.172C65.2447 17.244 66.0247 17.34 66.8167 17.46V15.048C66.8167 13.704 66.5167 12.792 65.9167 12.312C65.3407 11.808 64.4887 11.556 63.3607 11.556C61.8247 11.556 60.1087 11.976 58.2127 12.816L57.2767 10.368C58.3807 9.864 59.4367 9.48 60.4447 9.216C61.4527 8.952 62.4727 8.82 63.5047 8.82C65.1847 8.82 66.4687 9.096 67.3567 9.648C68.2447 10.2 68.8567 10.932 69.1927 11.844C69.5287 12.756 69.6967 13.752 69.6967 14.832V22.536C69.6967 23.088 69.8047 23.556 70.0207 23.94C70.2367 24.3 70.6687 24.48 71.3167 24.48H71.7127V27.18H71.1727ZM59.4007 22.104C59.4007 22.92 59.5927 23.58 59.9767 24.084C60.3607 24.588 60.9127 24.84 61.6327 24.84C62.2567 24.84 62.9767 24.66 63.7927 24.3C64.6087 23.916 65.6167 23.16 66.8167 22.032V19.764C65.1847 19.5 63.7447 19.368 62.4967 19.368C61.3927 19.368 60.6007 19.596 60.1207 20.052C59.6407 20.508 59.4007 21.192 59.4007 22.104ZM88.0544 2.52L95.5064 20.664L102.994 2.52H106.558V27H103.498V16.524L103.894 7.092L96.8744 24.12H93.9224L87.0464 7.02L87.4424 16.524V27H84.3824V2.52H88.0544ZM126.506 25.956C125.426 26.484 124.346 26.844 123.266 27.036C122.186 27.252 121.19 27.36 120.278 27.36C117.71 27.36 115.79 26.628 114.518 25.164C113.27 23.7 112.646 21.696 112.646 19.152V16.992C112.646 14.52 113.27 12.54 114.518 11.052C115.79 9.564 117.578 8.82 119.882 8.82C121.106 8.82 122.222 9.072 123.23 9.576C124.262 10.056 125.078 10.8 125.678 11.808C126.302 12.792 126.614 14.064 126.614 15.624C126.614 16.632 126.47 17.784 126.182 19.08H115.562V19.152C115.562 20.976 115.934 22.356 116.678 23.292C117.446 24.228 118.67 24.696 120.35 24.696C121.118 24.696 121.958 24.6 122.87 24.408C123.806 24.216 124.718 23.916 125.606 23.508L126.506 25.956ZM119.882 11.412C118.49 11.412 117.434 11.868 116.714 12.78C116.018 13.668 115.634 14.928 115.562 16.56H123.626C123.698 16.128 123.734 15.72 123.734 15.336C123.734 13.992 123.35 13.008 122.582 12.384C121.838 11.736 120.938 11.412 119.882 11.412ZM142.559 27V24.516C141.455 25.572 140.447 26.316 139.535 26.748C138.647 27.156 137.723 27.36 136.763 27.36C134.867 27.36 133.403 26.64 132.371 25.2C131.363 23.76 130.859 21.744 130.859 19.152V17.064C130.859 14.544 131.483 12.54 132.731 11.052C134.003 9.564 135.839 8.82 138.239 8.82C138.935 8.82 139.631 8.892 140.327 9.036C141.023 9.18 141.719 9.384 142.415 9.648V0.36H145.367V27H142.559ZM133.919 19.152C133.919 21.024 134.207 22.404 134.783 23.292C135.383 24.156 136.271 24.588 137.447 24.588C138.143 24.588 138.863 24.42 139.607 24.084C140.351 23.724 141.287 22.992 142.415 21.888V12.384C141.719 12.072 141.047 11.856 140.399 11.736C139.751 11.592 139.115 11.52 138.491 11.52C136.859 11.52 135.683 12.012 134.963 12.996C134.267 13.98 133.919 15.336 133.919 17.064V19.152ZM154.859 4.824H151.547V1.512H154.859V4.824ZM154.679 27H151.727V9.18H154.679V27ZM174.075 27.18C172.971 27.18 172.083 26.928 171.411 26.424C170.763 25.92 170.307 25.296 170.043 24.552C168.867 25.584 167.799 26.316 166.839 26.748C165.879 27.156 164.919 27.36 163.959 27.36C162.399 27.36 161.247 26.856 160.503 25.848C159.759 24.84 159.387 23.604 159.387 22.14C159.387 21.156 159.567 20.28 159.927 19.512C160.287 18.744 160.899 18.144 161.763 17.712C162.627 17.256 163.791 17.028 165.255 17.028C165.903 17.028 166.611 17.076 167.379 17.172C168.147 17.244 168.927 17.34 169.719 17.46V15.048C169.719 13.704 169.419 12.792 168.819 12.312C168.243 11.808 167.391 11.556 166.263 11.556C164.727 11.556 163.011 11.976 161.115 12.816L160.179 10.368C161.283 9.864 162.339 9.48 163.347 9.216C164.355 8.952 165.375 8.82 166.407 8.82C168.087 8.82 169.371 9.096 170.259 9.648C171.147 10.2 171.759 10.932 172.095 11.844C172.431 12.756 172.599 13.752 172.599 14.832V22.536C172.599 23.088 172.707 23.556 172.923 23.94C173.139 24.3 173.571 24.48 174.219 24.48H174.615V27.18H174.075ZM162.303 22.104C162.303 22.92 162.495 23.58 162.879 24.084C163.263 24.588 163.815 24.84 164.535 24.84C165.159 24.84 165.879 24.66 166.695 24.3C167.511 23.916 168.519 23.16 169.719 22.032V19.764C168.087 19.5 166.647 19.368 165.399 19.368C164.295 19.368 163.503 19.596 163.023 20.052C162.543 20.508 162.303 21.192 162.303 22.104Z" fill="#32343B"/>
</svg>
