<?xml version="1.0" encoding="utf-8"?><!-- Uploaded to: SVG Repo, www.svgrepo.com, Generator: SVG Repo Mixer Tools -->
<svg width="800px" height="800px" viewBox="0 0 24 24" fill="none" xmlns="http://www.w3.org/2000/svg">
<path fill-rule="evenodd" clip-rule="evenodd" d="M4.45643 7.90404V8.9647L4.99235 9.50062L3.02612 16.7924L3.555 17.7118L7.78744 18.8531L8.05539 19.8531L8.97395 20.3834L14.4167 18.925L14.9961 19.5044H16.0568L20.7411 14.8201V13.7594L10.2014 3.21973H9.14074L4.45643 7.90404ZM4.66966 16.4588L5.91169 11.8527L7.33874 17.1785L4.66966 16.4588ZM13.192 17.7003L7.5086 12.0169L9.31016 18.7404L13.192 17.7003ZM15.5265 17.9134L6.04742 8.43437L9.67107 4.81072L19.1501 14.2898L15.5265 17.9134ZM9.08694 7.81572C8.79405 8.10862 8.79405 8.58349 9.08694 8.87638C9.37983 9.16928 9.85471 9.16928 10.1476 8.87638C10.4405 8.58349 10.4405 8.10862 10.1476 7.81572C9.85471 7.52283 9.37983 7.52283 9.08694 7.81572Z" fill="#080341"/>
</svg>