<svg width="236" height="28" viewBox="0 0 236 28" fill="none" xmlns="http://www.w3.org/2000/svg">
<path d="M7.82 24.552C9.332 24.552 10.496 24.228 11.312 23.58C12.128 22.908 12.536 21.936 12.536 20.664C12.536 19.608 12.248 18.72 11.672 18C11.12 17.28 10.208 16.728 8.936 16.344L6.02 15.48C4.196 14.928 2.852 14.1 1.988 12.996C1.124 11.868 0.692 10.488 0.692 8.856C0.692 7.608 0.932 6.48 1.412 5.472C1.916 4.464 2.708 3.66 3.788 3.06C4.892 2.46 6.332 2.16 8.108 2.16C9.188 2.16 10.304 2.292 11.456 2.556C12.608 2.796 13.772 3.192 14.948 3.744L13.94 6.444C12.788 5.94 11.744 5.58 10.808 5.364C9.896 5.124 9.02 5.004 8.18 5.004C6.812 5.004 5.744 5.292 4.976 5.868C4.232 6.42 3.86 7.344 3.86 8.64C3.86 9.576 4.112 10.368 4.616 11.016C5.12 11.64 6.02 12.156 7.316 12.564L10.232 13.428C13.88 14.508 15.704 16.836 15.704 20.412C15.704 22.476 15.08 24.156 13.832 25.452C12.584 26.724 10.58 27.36 7.82 27.36C6.692 27.36 5.492 27.228 4.22 26.964C2.972 26.676 1.676 26.232 0.332 25.632L1.304 22.968C2.576 23.544 3.716 23.952 4.724 24.192C5.756 24.432 6.788 24.552 7.82 24.552ZM33.4109 27.18C32.3069 27.18 31.4189 26.928 30.7469 26.424C30.0989 25.92 29.6429 25.296 29.3789 24.552C28.2029 25.584 27.1349 26.316 26.1749 26.748C25.2149 27.156 24.2549 27.36 23.2949 27.36C21.7349 27.36 20.5829 26.856 19.8389 25.848C19.0949 24.84 18.7229 23.604 18.7229 22.14C18.7229 21.156 18.9029 20.28 19.2629 19.512C19.6229 18.744 20.2349 18.144 21.0989 17.712C21.9629 17.256 23.1269 17.028 24.5909 17.028C25.2389 17.028 25.9469 17.076 26.7149 17.172C27.4829 17.244 28.2629 17.34 29.0549 17.46V15.048C29.0549 13.704 28.7549 12.792 28.1549 12.312C27.5789 11.808 26.7269 11.556 25.5989 11.556C24.0629 11.556 22.3469 11.976 20.4509 12.816L19.5149 10.368C20.6189 9.864 21.6749 9.48 22.6829 9.216C23.6909 8.952 24.7109 8.82 25.7429 8.82C27.4229 8.82 28.7069 9.096 29.5949 9.648C30.4829 10.2 31.0949 10.932 31.4309 11.844C31.7669 12.756 31.9349 13.752 31.9349 14.832V22.536C31.9349 23.088 32.0429 23.556 32.2589 23.94C32.4749 24.3 32.9069 24.48 33.5549 24.48H33.9509V27.18H33.4109ZM21.6389 22.104C21.6389 22.92 21.8309 23.58 22.2149 24.084C22.5989 24.588 23.1509 24.84 23.8709 24.84C24.4949 24.84 25.2149 24.66 26.0309 24.3C26.8469 23.916 27.8549 23.16 29.0549 22.032V19.764C27.4229 19.5 25.9829 19.368 24.7349 19.368C23.6309 19.368 22.8389 19.596 22.3589 20.052C21.8789 20.508 21.6389 21.192 21.6389 22.104ZM46.7008 11.592C46.0288 11.592 45.2368 11.76 44.3248 12.096C43.4368 12.432 42.3568 13.116 41.0848 14.148V27H38.1328V0.36H41.0848V11.556C42.3328 10.5 43.4608 9.78 44.4688 9.396C45.4768 9.012 46.4608 8.82 47.4208 8.82C49.0768 8.82 50.3368 9.348 51.2008 10.404C52.0888 11.436 52.5328 12.912 52.5328 14.832V27H49.5808V15.264C49.5808 12.816 48.6208 11.592 46.7008 11.592ZM71.7313 27.18C70.6273 27.18 69.7393 26.928 69.0673 26.424C68.4193 25.92 67.9633 25.296 67.6993 24.552C66.5233 25.584 65.4553 26.316 64.4953 26.748C63.5353 27.156 62.5753 27.36 61.6153 27.36C60.0553 27.36 58.9033 26.856 58.1593 25.848C57.4153 24.84 57.0433 23.604 57.0433 22.14C57.0433 21.156 57.2233 20.28 57.5833 19.512C57.9433 18.744 58.5553 18.144 59.4193 17.712C60.2833 17.256 61.4473 17.028 62.9113 17.028C63.5593 17.028 64.2673 17.076 65.0352 17.172C65.8033 17.244 66.5833 17.34 67.3753 17.46V15.048C67.3753 13.704 67.0753 12.792 66.4753 12.312C65.8993 11.808 65.0473 11.556 63.9193 11.556C62.3833 11.556 60.6673 11.976 58.7713 12.816L57.8353 10.368C58.9393 9.864 59.9953 9.48 61.0033 9.216C62.0113 8.952 63.0313 8.82 64.0633 8.82C65.7433 8.82 67.0273 9.096 67.9153 9.648C68.8033 10.2 69.4153 10.932 69.7513 11.844C70.0873 12.756 70.2553 13.752 70.2553 14.832V22.536C70.2553 23.088 70.3633 23.556 70.5793 23.94C70.7953 24.3 71.2273 24.48 71.8753 24.48H72.2713V27.18H71.7313ZM59.9593 22.104C59.9593 22.92 60.1513 23.58 60.5353 24.084C60.9193 24.588 61.4713 24.84 62.1913 24.84C62.8153 24.84 63.5353 24.66 64.3513 24.3C65.1673 23.916 66.1753 23.16 67.3753 22.032V19.764C65.7433 19.5 64.3033 19.368 63.0553 19.368C61.9513 19.368 61.1593 19.596 60.6793 20.052C60.1993 20.508 59.9593 21.192 59.9593 22.104ZM90.8532 19.152C90.8532 21.648 90.2292 23.64 88.9812 25.128C87.7332 26.616 85.8972 27.36 83.4732 27.36C81.0732 27.36 78.6972 26.724 76.3452 25.452V0.36H79.2972V11.592C80.3772 10.584 81.3612 9.876 82.2492 9.468C83.1612 9.036 84.0852 8.82 85.0212 8.82C86.8932 8.82 88.3332 9.54 89.3412 10.98C90.3492 12.42 90.8532 14.448 90.8532 17.064V19.152ZM84.3012 11.592C83.6292 11.592 82.9092 11.772 82.1412 12.132C81.3972 12.492 80.4492 13.236 79.2972 14.364V23.796C80.7132 24.396 82.0452 24.696 83.2932 24.696C84.9012 24.696 86.0532 24.204 86.7492 23.22C87.4452 22.212 87.7932 20.856 87.7932 19.152V17.064C87.7932 15.192 87.5052 13.812 86.9292 12.924C86.3532 12.036 85.4772 11.592 84.3012 11.592ZM109.348 27.18C108.244 27.18 107.356 26.928 106.684 26.424C106.036 25.92 105.58 25.296 105.316 24.552C104.14 25.584 103.072 26.316 102.112 26.748C101.152 27.156 100.192 27.36 99.2324 27.36C97.6724 27.36 96.5204 26.856 95.7764 25.848C95.0324 24.84 94.6604 23.604 94.6604 22.14C94.6604 21.156 94.8404 20.28 95.2004 19.512C95.5604 18.744 96.1724 18.144 97.0364 17.712C97.9004 17.256 99.0644 17.028 100.528 17.028C101.176 17.028 101.884 17.076 102.652 17.172C103.42 17.244 104.2 17.34 104.992 17.46V15.048C104.992 13.704 104.692 12.792 104.092 12.312C103.516 11.808 102.664 11.556 101.536 11.556C100 11.556 98.2844 11.976 96.3884 12.816L95.4524 10.368C96.5564 9.864 97.6124 9.48 98.6204 9.216C99.6284 8.952 100.648 8.82 101.68 8.82C103.36 8.82 104.644 9.096 105.532 9.648C106.42 10.2 107.032 10.932 107.368 11.844C107.704 12.756 107.872 13.752 107.872 14.832V22.536C107.872 23.088 107.98 23.556 108.196 23.94C108.412 24.3 108.844 24.48 109.492 24.48H109.888V27.18H109.348ZM97.5764 22.104C97.5764 22.92 97.7684 23.58 98.1524 24.084C98.5364 24.588 99.0884 24.84 99.8084 24.84C100.432 24.84 101.152 24.66 101.968 24.3C102.784 23.916 103.792 23.16 104.992 22.032V19.764C103.36 19.5 101.92 19.368 100.672 19.368C99.5684 19.368 98.7764 19.596 98.2964 20.052C97.8164 20.508 97.5764 21.192 97.5764 22.104ZM123.862 26.352C122.518 27.024 121.09 27.36 119.578 27.36C118.282 27.36 117.262 27.096 116.518 26.568C115.798 26.04 115.282 25.332 114.97 24.444C114.682 23.556 114.538 22.572 114.538 21.492V11.772H111.442V9.18H114.538V4.212H117.49V9.18H123.322V11.772H117.49V21.384C117.49 22.632 117.694 23.496 118.102 23.976C118.534 24.432 119.194 24.66 120.082 24.66C120.514 24.66 120.958 24.612 121.414 24.516C121.894 24.396 122.41 24.204 122.962 23.94L123.862 26.352ZM135.73 2.52H138.97V18.216C138.97 20.184 139.378 21.72 140.194 22.824C141.034 23.928 142.33 24.48 144.082 24.48C145.858 24.48 147.154 23.928 147.97 22.824C148.786 21.72 149.194 20.184 149.194 18.216V2.52H152.434V18.216C152.434 21.072 151.738 23.316 150.346 24.948C148.954 26.556 146.866 27.36 144.082 27.36C141.274 27.36 139.174 26.556 137.782 24.948C136.414 23.316 135.73 21.072 135.73 18.216V2.52ZM167.318 11.592C166.646 11.592 165.89 11.772 165.05 12.132C164.21 12.468 163.154 13.14 161.882 14.148V27H158.93V9.18H161.738V11.664C163.01 10.608 164.138 9.876 165.122 9.468C166.106 9.036 167.078 8.82 168.038 8.82C169.166 8.82 170.102 9.084 170.846 9.612C171.59 10.116 172.142 10.848 172.502 11.808C173.822 10.68 174.998 9.9 176.03 9.468C177.086 9.036 178.118 8.82 179.126 8.82C180.71 8.82 181.922 9.348 182.762 10.404C183.602 11.436 184.022 12.912 184.022 14.832V27H181.07V15.264C181.07 12.816 180.182 11.592 178.406 11.592C177.734 11.592 176.966 11.772 176.102 12.132C175.262 12.468 174.206 13.14 172.934 14.148C172.958 14.244 172.97 14.352 172.97 14.472C172.97 14.592 172.97 14.712 172.97 14.832V27H170.018V15.264C170.018 12.816 169.118 11.592 167.318 11.592ZM199.579 11.772C198.499 11.772 197.443 11.964 196.411 12.348C195.403 12.732 194.323 13.464 193.171 14.544V27H190.219V9.18H193.027V12.06C194.251 10.86 195.367 10.02 196.375 9.54C197.407 9.06 198.475 8.82 199.579 8.82V11.772ZM216.47 27.18C215.366 27.18 214.478 26.928 213.806 26.424C213.158 25.92 212.702 25.296 212.438 24.552C211.262 25.584 210.194 26.316 209.234 26.748C208.274 27.156 207.314 27.36 206.354 27.36C204.794 27.36 203.642 26.856 202.898 25.848C202.154 24.84 201.782 23.604 201.782 22.14C201.782 21.156 201.962 20.28 202.322 19.512C202.682 18.744 203.294 18.144 204.158 17.712C205.022 17.256 206.186 17.028 207.65 17.028C208.298 17.028 209.006 17.076 209.774 17.172C210.542 17.244 211.322 17.34 212.114 17.46V15.048C212.114 13.704 211.814 12.792 211.214 12.312C210.638 11.808 209.786 11.556 208.658 11.556C207.122 11.556 205.406 11.976 203.51 12.816L202.574 10.368C203.678 9.864 204.734 9.48 205.742 9.216C206.75 8.952 207.77 8.82 208.802 8.82C210.482 8.82 211.766 9.096 212.654 9.648C213.542 10.2 214.154 10.932 214.49 11.844C214.826 12.756 214.994 13.752 214.994 14.832V22.536C214.994 23.088 215.102 23.556 215.318 23.94C215.534 24.3 215.966 24.48 216.614 24.48H217.01V27.18H216.47ZM204.698 22.104C204.698 22.92 204.89 23.58 205.274 24.084C205.658 24.588 206.21 24.84 206.93 24.84C207.554 24.84 208.274 24.66 209.09 24.3C209.906 23.916 210.914 23.16 212.114 22.032V19.764C210.482 19.5 209.042 19.368 207.794 19.368C206.69 19.368 205.898 19.596 205.418 20.052C204.938 20.508 204.698 21.192 204.698 22.104ZM229.759 11.592C229.087 11.592 228.295 11.76 227.383 12.096C226.495 12.432 225.415 13.116 224.143 14.148V27H221.191V0.36H224.143V11.556C225.391 10.5 226.519 9.78 227.527 9.396C228.535 9.012 229.519 8.82 230.479 8.82C232.135 8.82 233.395 9.348 234.259 10.404C235.147 11.436 235.591 12.912 235.591 14.832V27H232.639V15.264C232.639 12.816 231.679 11.592 229.759 11.592Z" fill="white"/>
</svg>
