<svg width="104" height="101" viewBox="0 0 104 101" fill="none" xmlns="http://www.w3.org/2000/svg">
<circle cx="50.5" cy="50.5" r="50.5" fill="white"/>
<path d="M17.744 53.768C20.2187 53.768 21.456 52.8507 21.456 51.016C21.456 50.2693 21.264 49.6827 20.88 49.256C20.5173 48.8293 19.8347 48.456 18.832 48.136L16.208 47.272C13.072 46.248 11.504 44.1893 11.504 41.096C11.504 39.304 12.0587 37.832 13.168 36.68C14.2987 35.5067 16.0587 34.92 18.448 34.92C19.4507 34.92 20.4427 35.0373 21.424 35.272C22.4053 35.4853 23.4507 35.8373 24.56 36.328L23.376 39.624C22.352 39.2187 21.4773 38.9307 20.752 38.76C20.048 38.568 19.3227 38.472 18.576 38.472C17.5947 38.472 16.816 38.6533 16.24 39.016C15.6853 39.3573 15.408 39.9867 15.408 40.904C15.408 41.5867 15.6 42.152 15.984 42.6C16.3893 43.0267 17.0507 43.3893 17.968 43.688L20.592 44.552C22.1707 45.0853 23.3547 45.864 24.144 46.888C24.9547 47.8907 25.36 49.224 25.36 50.888C25.36 52.808 24.752 54.3653 23.536 55.56C22.32 56.7333 20.4107 57.32 17.808 57.32C16.784 57.32 15.7173 57.2027 14.608 56.968C13.52 56.712 12.3253 56.2853 11.024 55.688L12.208 52.392C13.4027 52.904 14.416 53.2667 15.248 53.48C16.1013 53.672 16.9333 53.768 17.744 53.768ZM41.3785 57.16C40.2905 57.16 39.4158 56.936 38.7545 56.488C38.1145 56.04 37.6452 55.4853 37.3465 54.824C36.4292 55.6773 35.5438 56.3067 34.6905 56.712C33.8372 57.1173 32.9198 57.32 31.9385 57.32C30.5092 57.32 29.4532 56.8613 28.7705 55.944C28.1092 55.0267 27.7785 53.864 27.7785 52.456C27.7785 51.5173 27.9492 50.696 28.2905 49.992C28.6532 49.2667 29.2398 48.7013 30.0505 48.296C30.8612 47.8907 31.9705 47.688 33.3785 47.688C33.9332 47.688 34.5092 47.7307 35.1065 47.816C35.7038 47.88 36.3012 47.9653 36.8985 48.072V46.184C36.8985 45.288 36.6532 44.68 36.1625 44.36C35.6718 44.0187 35.0105 43.848 34.1785 43.848C33.5385 43.848 32.8345 43.9333 32.0665 44.104C31.3198 44.2747 30.5092 44.5413 29.6345 44.904L28.5785 41.768C30.7332 40.8933 32.6852 40.456 34.4345 40.456C36.0132 40.456 37.2292 40.7227 38.0825 41.256C38.9572 41.7893 39.5652 42.4933 39.9065 43.368C40.2478 44.2427 40.4185 45.1813 40.4185 46.184V52.424C40.4185 52.744 40.5038 53.0533 40.6745 53.352C40.8665 53.6293 41.2292 53.768 41.7625 53.768H42.1145V57.16H41.3785ZM31.3305 52.392C31.3305 52.968 31.4585 53.4267 31.7145 53.768C31.9705 54.088 32.3438 54.248 32.8345 54.248C33.3252 54.248 33.8798 54.12 34.4985 53.864C35.1172 53.608 35.9172 53.0107 36.8985 52.072V50.696C35.7892 50.504 34.7012 50.408 33.6345 50.408C32.8025 50.408 32.2052 50.5787 31.8425 50.92C31.5012 51.2613 31.3305 51.752 31.3305 52.392ZM45.2773 35.24H49.2133V49.192C49.2133 50.6 49.5226 51.7093 50.1413 52.52C50.7599 53.3093 51.7519 53.704 53.1173 53.704C54.4826 53.704 55.4746 53.3093 56.0933 52.52C56.7119 51.7093 57.0213 50.6 57.0213 49.192V35.24H60.9573V49.192C60.9573 51.6453 60.3066 53.6187 59.0053 55.112C57.7039 56.584 55.7413 57.32 53.1173 57.32C50.4719 57.32 48.4986 56.584 47.1973 55.112C45.9173 53.6187 45.2773 51.6453 45.2773 49.192V35.24ZM69.6768 45.768V57H65.9968V40.776H69.4848V42.92C70.4874 42.0453 71.4154 41.416 72.2688 41.032C73.1221 40.648 73.9968 40.456 74.8928 40.456C76.8768 40.456 78.2314 41.3307 78.9568 43.08C80.0234 42.1413 81.0154 41.4693 81.9328 41.064C82.8501 40.6587 83.7781 40.456 84.7168 40.456C86.2101 40.456 87.3514 40.9573 88.1408 41.96C88.9301 42.9413 89.3248 44.328 89.3248 46.12V57H85.6448V46.568C85.6448 44.776 84.9621 43.88 83.5968 43.88C83.0634 43.88 82.4768 44.008 81.8368 44.264C81.1968 44.52 80.4181 45.0213 79.5008 45.768V57H75.8208V46.568C75.8208 44.776 75.1381 43.88 73.7728 43.88C73.2394 43.88 72.6528 44.008 72.0128 44.264C71.3728 44.52 70.5941 45.0213 69.6768 45.768Z" fill="#5D87FF"/>
<path d="M19 67.5C37.5 87 64 87 81 67.5" stroke="#5D87FF" stroke-width="5"/>
</svg>
