<?xml version="1.0" encoding="utf-8"?><!-- Uploaded to: SVG Repo, www.svgrepo.com, Generator: SVG Repo Mixer Tools -->
<svg width="800px" height="800px" viewBox="0 0 24 24" fill="none" xmlns="http://www.w3.org/2000/svg">
<path fill-rule="evenodd" clip-rule="evenodd" d="M6.75 8.25V6V4.5H8.25H9.75V6L8.25 6L8.25 8.25C8.25 10.3211 9.92893 12 12 12C14.0711 12 15.75 10.3211 15.75 8.25V6H14.25V4.5H15.75H17.25V6V8.25C17.25 10.8949 15.2942 13.0829 12.75 13.4468V16.5C12.75 17.7426 13.7574 18.75 15 18.75C16.0376 18.75 16.9112 18.0476 17.1712 17.0924C16.3387 16.7624 15.75 15.95 15.75 15C15.75 13.7574 16.7574 12.75 18 12.75C19.2426 12.75 20.25 13.7574 20.25 15C20.25 15.9999 19.5978 16.8475 18.6955 17.1404C18.3916 18.9064 16.8527 20.25 15 20.25C12.9289 20.25 11.25 18.5711 11.25 16.5V13.4468C8.70578 13.0829 6.75 10.8949 6.75 8.25ZM18.75 15C18.75 15.4142 18.4142 15.75 18 15.75C17.5858 15.75 17.25 15.4142 17.25 15C17.25 14.5858 17.5858 14.25 18 14.25C18.4142 14.25 18.75 14.5858 18.75 15Z" fill="#080341"/>
</svg>