<svg width="800px" height="800px" viewBox="0 0 24 24" fill="none" xmlns="http://www.w3.org/2000/svg">
<path fill-rule="evenodd" clip-rule="evenodd" d="M17.6251 5.3144L18.9697 3.96973L20.0304 5.03039L18.6857 6.37506L19.2804 6.96973L18.5303 7.71979L19.8106 9.00006L10.8107 18L12.5304 19.7197L11.4697 20.7804L9.74999 19.0607L9.74993 19.0607L7.87499 17.1858L5.93572 19.1251L6.53039 19.7197L5.46973 20.7804L3.21973 18.5304L4.28039 17.4697L4.87506 18.0644L6.81433 16.1251L4.93927 14.2501L4.93933 14.25L3.21973 12.5304L4.28039 11.4697L5.99999 13.1893L14.9999 4.1894L16.2803 5.46979L17.0304 4.71973L17.6251 5.3144ZM9.74999 16.9393L7.06065 14.25L8.24999 13.0607L9.59473 14.4054L10.6554 13.3447L9.31065 12L10.5 10.8107L11.8447 12.1554L12.9054 11.0947L11.5607 9.74999L12.75 8.56065L14.0947 9.90539L15.1554 8.84473L13.8107 7.49999L14.9999 6.31072L17.6893 9.00006L9.74999 16.9393Z" fill="#ffffff"/>
</svg>